<svg xmlns="http://www.w3.org/2000/svg" viewBox="0 0 32 32" width="32" height="32">
  <rect width="32" height="32" rx="5" fill="#0b1220"/>
  <rect x="11" y="3" width="10" height="4" rx="0.5" fill="#fff"/>
  <path d="M10 8h12l1 4c2 0 3 1.5 3 3.5v8.5a4 4 0 01-4 4H10a4 4 0 01-4-4V15.5C6 13.5 7 12 9 12l1-4z" fill="#fff" opacity="0.25"/>
  <path d="M10 8h12l1 4c2 0 3 1.5 3 3.5v8.5a4 4 0 01-4 4H10a4 4 0 01-4-4V15.5C6 13.5 7 12 9 12l1-4z" stroke="#fff" stroke-width="1.5" stroke-linejoin="round" fill="none"/>
  <circle cx="16" cy="19" r="2.5" fill="#fff"/>
</svg>
